<svg version="1.0" xmlns="http://www.w3.org/2000/svg" viewBox="0 0 119.98 103.87" color-interpolation-filters="sRGB" style="margin:auto">
  <path d="M0 103.57c.4-.18.49-.61.68-.94Q30 51.84 59.38 1c.17-.31.57-.57.36-1h.48c-.21.51.24.78.43 1.12L80 34.71a2.36 2.36 0 0 1 .58 1.29c-3.33 0-6.64-.17-9.93.06a4.09 4.09 0 0 1-4.59-2.64c-1.61-3.25-3.57-6.32-5.4-9.46-.19-.33-.29-.74-.68-1a2.66 2.66 0 0 0-.73 1.04Q39.9 57.49 20.57 91c-.85 1.48-.85 1.48.92 1.48h31.79c.47 0 .95.06 1.42.09-.6 1.32-1.43 2.52-2.13 3.79-1.4 2.52-2.84 5-4.34 7.48H1c-.35-.05-.79.22-1-.27z" fill="#e20107"/>
  <path d="M84 41.82c.44.21.54.67.75 1l34.5 59.66c.21.37.31.82.73 1-.13.6-.59.21-.84.21h-12.35c-.17-.32-.32-.64-.5-1Q94 81.59 81.69 60.31C80.34 58 79 55.6 77.7 53.24c.2-1.24 1.15-2.14 1.7-3.24 1.43-2.77 3.25-5.34 4.6-8.18zm16.53 61.99h-13.2a3.54 3.54 0 0 0-.18-.55L67.83 69.83c1.5-2.08 2.57-4.43 3.93-6.59a42.85 42.85 0 0 1 2.72-4.56c.19.3.4.58.58.89q10.86 18.79 21.71 37.59c1.23 2.21 2.51 4.43 3.76 6.65zm-52.3 0c1.5-2.46 2.94-5 4.34-7.48.7-1.27 1.53-2.47 2.13-3.79h6.63l-3.27-5.74c.8-1.32 1.63-2.63 2.4-4 1.37-2.41 2.72-4.84 4.08-7.26.32.07.37.39.5.61l15.54 26.87c.13.23.37.44.27.76z" fill="#b10f15"/>
  <path d="M67.83 69.83H53.35a1.63 1.63 0 0 0-1.67 1c-.81 1.5-1.69 3-2.54 4.43.34.39.72.22 1 .22h13c.44 0 .87.05 1.31.08-1.36 2.42-2.71 4.85-4.08 7.26-.77 1.34-1.6 2.65-2.4 4H29.12L60 33.39c1.45 2.5 2.83 4.82 4.12 7.18a2 2 0 0 0 2 1.2c5.51-.06 11 0 16.55 0 .43 0 .87 0 1.3.08-1.33 2.84-3.15 5.41-4.58 8.2-.55 1.08-1.5 2-1.7 3.22l-10.63-.09h-4.42c-.35 0-.72 0-.94.34l-2.87 5h14.39c.42 0 .88-.16 1.26.17a42.85 42.85 0 0 0-2.72 4.56c-1.36 2.15-2.43 4.5-3.93 6.58z" fill="#e20107"/>
</svg>
