<?xml version="1.0" standalone="no"?>
<!DOCTYPE svg PUBLIC "-//W3C//DTD SVG 20010904//EN"
 "http://www.w3.org/TR/2001/REC-SVG-20010904/DTD/svg10.dtd">
<svg version="1.0" xmlns="http://www.w3.org/2000/svg"
 width="500.000000pt" height="500.000000pt" viewBox="0 0 500.000000 500.000000"
 preserveAspectRatio="xMidYMid meet">
<metadata>
Created by potrace 1.14, written by Peter Selinger 2001-2017
</metadata>
<g transform="translate(0.000000,500.000000) scale(0.100000,-0.100000)"
fill="#000000" stroke="none">
<path d="M1817 2498 l-677 -1173 912 -3 c501 -1 913 0 916 2 2 3 -78 147 -179
320 l-182 316 -173 0 c-95 0 -175 3 -177 8 -2 4 11 33 30 65 l34 57 182 0 182
-1 220 -384 220 -384 148 -1 149 0 -20 33 c-11 17 -145 249 -298 515 l-278
482 -178 0 -177 0 33 58 34 57 184 3 183 2 35 -62 c18 -35 166 -290 327 -568
l294 -505 149 -5 149 -5 -18 30 c-9 17 -192 333 -406 703 l-388 672 -214 0
c-245 0 -224 -8 -288 108 -22 40 -42 72 -45 72 -3 0 -161 -270 -351 -600
l-347 -600 329 -2 330 -3 35 -62 35 -63 -467 0 c-454 0 -466 0 -461 19 7 29
888 1551 897 1551 8 0 59 -84 120 -197 48 -88 65 -95 222 -91 l127 3 -232 403
c-127 221 -234 402 -237 402 -3 0 -310 -528 -683 -1172z"/>
</g>
</svg>
