<?xml version="1.0" standalone="no"?>
<!DOCTYPE svg PUBLIC "-//W3C//DTD SVG 20010904//EN"
 "http://www.w3.org/TR/2001/REC-SVG-20010904/DTD/svg10.dtd">
<svg version="1.0" xmlns="http://www.w3.org/2000/svg"
 width="600.000000pt" height="600.000000pt" viewBox="0 0 600.000000 600.000000"
 preserveAspectRatio="xMidYMid meet">
<metadata>
Created by potrace 1.14, written by Peter Selinger 2001-2017
</metadata>
<g transform="translate(0.000000,600.000000) scale(0.100000,-0.100000)"
fill="#000000" stroke="none">
<path d="M1258 4556 c-60 -22 -104 -80 -112 -149 -15 -124 114 -231 230 -191
45 15 83 43 98 70 6 10 15 22 19 25 4 3 10 30 12 60 10 137 -117 231 -247 185z"/>
<path d="M2907 4544 c-1 -1 -32 -5 -69 -8 -37 -4 -77 -9 -90 -12 -13 -3 -34
-7 -48 -9 -14 -2 -50 -11 -80 -20 -30 -9 -62 -18 -70 -20 -8 -2 -16 -4 -17 -5
-2 -2 -6 -3 -10 -5 -16 -4 -132 -53 -153 -64 -62 -32 -106 -57 -110 -62 -3 -3
-21 -14 -40 -25 -19 -10 -37 -21 -40 -24 -3 -3 -25 -21 -50 -40 -24 -19 -52
-42 -61 -50 -8 -8 -33 -32 -55 -52 -21 -20 -52 -53 -69 -73 -16 -20 -40 -46
-52 -57 -13 -12 -23 -25 -23 -30 0 -4 -17 -32 -37 -61 -43 -62 -123 -212 -123
-233 0 -8 -4 -14 -10 -14 -5 0 -10 -8 -10 -18 0 -10 -3 -22 -7 -26 -4 -4 -8
-13 -8 -19 -1 -7 -9 -38 -19 -69 -9 -32 -17 -60 -17 -63 0 -2 -5 -19 -10 -37
-5 -18 -12 -55 -15 -83 -4 -27 -7 -57 -8 -65 -1 -9 -5 -21 -10 -28 -4 -6 -3
-12 1 -12 5 0 8 -15 6 -32 -1 -18 -3 -49 -3 -68 0 -19 0 -46 -1 -60 -1 -35 -1
-39 6 -90 7 -56 28 -164 40 -207 24 -88 30 -109 35 -113 3 -3 6 -9 7 -15 5
-26 29 -81 38 -87 6 -4 7 -8 2 -8 -4 0 0 -15 10 -32 9 -18 16 -36 15 -40 -1
-5 2 -8 8 -8 5 0 10 -7 10 -15 0 -8 5 -15 11 -15 5 0 7 -4 4 -10 -3 -5 -2 -10
4 -10 5 0 13 -10 16 -21 7 -20 31 -55 103 -149 51 -65 169 -178 252 -239 91
-68 198 -134 218 -134 6 0 12 -4 12 -8 0 -3 8 -9 18 -11 9 -3 22 -6 27 -7 6
-2 26 -11 45 -21 19 -10 40 -19 45 -20 15 -4 33 -9 53 -17 9 -3 26 -7 38 -8
12 -1 30 -5 40 -10 22 -9 35 -12 84 -19 19 -3 53 -8 75 -12 60 -9 252 -11 315
-2 30 4 75 10 100 13 25 3 79 15 120 26 41 11 83 21 92 24 9 2 25 8 36 14 11
6 22 7 26 4 3 -3 6 -1 6 5 0 7 5 12 11 12 16 0 163 72 167 82 2 4 8 8 14 8 6
0 47 24 92 53 82 54 115 71 129 69 4 -1 7 2 7 7 0 18 110 39 225 42 59 2 114
20 116 39 2 13 2 37 0 53 -1 14 -55 47 -78 47 -25 0 -43 27 -43 65 0 22 6 38
15 41 8 4 12 11 8 18 -3 6 -3 8 2 4 4 -4 16 -3 26 2 11 6 20 6 23 1 5 -7 41
-8 41 -1 0 1 36 2 81 3 49 1 87 7 96 15 23 18 27 58 11 82 -8 12 -13 23 -11
25 2 2 46 5 97 7 63 2 95 7 98 15 3 7 8 11 13 8 4 -2 12 7 18 20 7 16 8 26 1
30 -5 4 -7 10 -4 15 14 22 -42 38 -134 39 -80 0 -97 4 -116 21 -27 25 -27 84
1 105 21 16 21 16 84 20 59 3 55 2 67 28 12 26 8 64 -10 81 -14 14 -19 15
-140 16 -73 0 -90 3 -107 20 -21 21 -28 90 -9 90 5 0 8 4 5 9 -8 13 30 22 104
26 36 1 72 3 80 4 24 2 42 39 35 71 -6 26 -18 35 -59 45 -70 16 -82 31 -92
120 -2 16 -6 41 -8 55 -2 14 -7 45 -11 70 -4 25 -11 47 -16 48 -5 2 -7 7 -4
12 5 8 -32 136 -44 155 -4 6 -7 16 -7 24 1 12 26 15 136 16 158 0 179 8 176
60 -3 52 -16 59 -117 61 -50 1 -93 5 -96 7 -3 3 -15 2 -27 -3 -13 -4 -29 -4
-39 1 -11 7 -17 6 -17 0 0 -5 -8 -7 -17 -4 -34 8 -53 30 -58 65 -7 40 19 78
55 81 24 2 76 56 63 66 -4 3 -8 12 -9 19 -1 6 -2 16 -2 21 -3 14 -64 22 -177
23 -55 1 -112 5 -126 10 -15 5 -57 38 -93 73 -36 35 -66 61 -66 57 0 -4 -4 -2
-8 3 -24 33 -257 180 -278 175 -4 -1 -10 2 -13 7 -5 7 -119 55 -141 59 -3 0
-30 8 -60 17 -80 24 -129 33 -225 43 -58 6 -234 12 -238 8z m-971 -930 c0 -38
-14 -66 -28 -57 -5 2 -8 0 -8 -5 0 -18 -62 1 -76 24 -26 39 0 104 39 96 4 -1
7 3 7 9 0 6 14 3 33 -8 27 -16 32 -25 33 -59z m-86 -99 c5 3 16 -2 25 -12 17
-17 17 -56 0 -133 -3 -14 -8 -50 -11 -80 -3 -30 -11 -66 -17 -80 -21 -42 -87
-43 -111 -1 -9 14 -12 56 -6 64 1 1 4 20 6 42 4 50 9 80 22 128 6 20 9 37 6
37 -2 0 5 9 15 19 21 21 54 31 59 19 2 -5 7 -6 12 -3z"/>
<path d="M4900 4469 c0 -5 -5 -9 -11 -9 -32 0 -65 -79 -55 -133 4 -21 12 -37
18 -37 6 0 8 -3 5 -7 -8 -8 44 -41 69 -43 46 -5 82 1 101 18 30 26 56 70 48
82 -3 5 -1 10 5 10 8 0 8 6 0 21 -7 11 -9 23 -6 26 3 3 -10 21 -28 40 -29 31
-40 36 -89 38 -32 2 -57 -1 -57 -6z"/>
<path d="M4368 4453 c-35 -9 -35 -88 0 -95 51 -11 85 35 57 78 -15 24 -23 26
-57 17z"/>
<path d="M795 4242 c-26 -6 -64 -50 -60 -71 2 -9 4 -23 4 -32 2 -35 27 -53 80
-55 28 -1 49 1 47 4 -3 2 3 12 14 21 18 15 24 36 21 72 -2 32 -71 86 -71 56 0
-8 -3 -8 -8 -2 -4 6 -16 9 -27 7z"/>
<path d="M4552 4208 c-18 -5 -30 -13 -27 -18 3 -4 1 -10 -4 -12 -15 -5 -19
-60 -8 -85 9 -20 25 -28 50 -24 4 0 7 -3 7 -9 0 -19 35 -10 63 16 33 31 35 84
2 113 -28 25 -45 29 -83 19z"/>
<path d="M1218 3932 c-82 -39 -96 -173 -22 -212 13 -8 24 -17 24 -21 0 -3 21
-7 48 -7 43 1 70 13 122 56 3 2 5 35 6 73 1 52 -2 69 -12 69 -8 0 -14 6 -14
14 0 32 -104 51 -152 28z"/>
<path d="M4665 2910 c-21 -24 -23 -66 -3 -87 25 -24 71 -26 96 -3 26 24 28 57
6 88 -20 29 -74 30 -99 2z"/>
<path d="M2507 1334 c-1 -2 -90 -5 -197 -8 -107 -2 -195 -5 -195 -6 0 0 -47
-3 -105 -5 -124 -4 -267 -13 -330 -20 -25 -3 -74 -8 -110 -11 -92 -8 -124 -12
-130 -15 -7 -3 -23 -7 -37 -8 -24 -2 -13 -29 15 -35 68 -15 137 -24 242 -31
283 -19 422 -26 582 -30 75 -1 141 -5 145 -8 5 -3 26 -2 46 3 21 4 37 4 37 -1
0 -5 5 -9 11 -9 5 0 7 5 3 11 -4 8 -1 8 12 1 23 -11 1003 -11 1021 1 6 4 14 3
18 -2 3 -5 15 -8 28 -5 12 2 110 7 217 10 295 9 294 9 307 17 6 4 14 3 18 -3
4 -6 11 -8 16 -4 9 5 125 14 241 18 21 0 38 3 38 6 0 3 21 5 46 4 56 -1 147
16 155 28 3 6 10 9 15 8 5 -1 10 3 12 10 2 6 0 10 -5 9 -4 -1 -10 0 -13 1 -7
2 -37 7 -89 14 -24 3 -61 8 -81 11 -20 3 -68 7 -106 10 -38 2 -69 5 -69 5 0 1
-31 3 -70 5 -38 2 -110 7 -160 10 -49 3 -96 6 -102 5 -7 0 -19 0 -25 0 -7 -1
-65 2 -128 5 -111 6 -1268 14 -1273 9z"/>
</g>
</svg>
