<?xml version="1.0" standalone="no"?>
<!DOCTYPE svg PUBLIC "-//W3C//DTD SVG 20010904//EN"
 "http://www.w3.org/TR/2001/REC-SVG-20010904/DTD/svg10.dtd">
<svg version="1.0" xmlns="http://www.w3.org/2000/svg"
 width="900.000000pt" height="900.000000pt" viewBox="0 0 900.000000 900.000000"
 preserveAspectRatio="xMidYMid meet">
<metadata>
Created by potrace 1.14, written by Peter Selinger 2001-2017
</metadata>
<g transform="translate(0.000000,900.000000) scale(0.100000,-0.100000)"
fill="#000000" stroke="none">
<path d="M4017 6683 c-3 -3 -37 -7 -74 -9 -37 -2 -75 -7 -83 -11 -8 -3 -24 -7
-35 -8 -59 -8 -100 -18 -103 -25 -2 -5 -9 -7 -17 -4 -7 3 -16 0 -20 -5 -3 -6
-11 -9 -16 -5 -5 3 -16 0 -24 -6 -8 -7 -15 -9 -15 -6 0 4 -9 2 -21 -4 -11 -6
-30 -13 -41 -15 -12 -3 -24 -8 -27 -12 -3 -5 -13 -9 -21 -11 -8 -2 -35 -13
-60 -24 -25 -11 -45 -19 -45 -17 0 2 -7 -2 -15 -8 -28 -24 -120 -82 -120 -75
0 3 -7 -3 -15 -14 -8 -10 -15 -15 -15 -11 0 4 -11 -2 -25 -15 -38 -36 -55 -49
-55 -43 0 3 -11 -5 -24 -19 -13 -15 -28 -26 -35 -26 -6 0 -11 -6 -11 -14 0 -8
-9 -18 -20 -21 -11 -3 -20 -14 -20 -22 0 -9 -3 -14 -6 -10 -7 7 -34 -15 -28
-24 2 -3 -8 -12 -21 -19 -14 -7 -25 -18 -25 -24 0 -6 -16 -27 -35 -46 -19 -19
-35 -39 -35 -46 0 -7 -7 -15 -16 -18 -9 -4 -14 -9 -11 -12 5 -5 -10 -27 -40
-59 -7 -8 -13 -18 -13 -22 0 -5 -9 -19 -21 -31 -11 -12 -17 -27 -14 -32 3 -6
1 -10 -5 -10 -6 0 -8 -4 -5 -10 3 -5 2 -10 -3 -10 -5 0 -17 -19 -28 -42 -10
-24 -22 -46 -27 -49 -4 -3 -9 -16 -10 -27 -1 -12 -5 -22 -10 -22 -4 0 -6 -4
-2 -9 3 -5 0 -13 -6 -16 -5 -4 -8 -13 -5 -21 3 -8 2 -14 -3 -14 -5 0 -12 -12
-16 -27 -5 -16 -9 -32 -11 -38 -2 -5 -6 -23 -9 -39 -3 -16 -9 -34 -13 -40 -7
-12 -9 -20 -17 -76 -6 -42 -13 -75 -15 -75 -1 0 -3 -20 -5 -44 -3 -25 -7 -51
-9 -58 -3 -7 -2 -13 2 -13 9 0 9 -41 0 -56 -5 -8 -3 -61 2 -74 1 -3 1 -9 0
-15 -6 -29 -6 -95 0 -95 4 0 6 -12 5 -27 -1 -16 3 -46 7 -68 5 -22 10 -53 12
-70 6 -48 45 -188 55 -198 5 -5 7 -16 4 -23 -3 -8 -1 -14 4 -14 5 0 10 -7 11
-15 1 -8 3 -22 4 -30 1 -8 5 -15 10 -15 4 0 8 -9 8 -20 0 -11 4 -20 8 -20 15
0 6 -53 -15 -96 -11 -22 -19 -48 -17 -57 1 -10 -2 -17 -7 -17 -6 0 -7 -4 -4
-10 3 -5 1 -10 -6 -10 -7 0 -10 -3 -6 -6 3 -4 0 -22 -9 -42 -8 -19 -12 -37 -9
-40 2 -2 0 -13 -5 -23 -6 -9 -12 -35 -16 -56 -3 -21 -7 -49 -10 -63 -13 -70
-17 -110 -18 -157 -1 -29 -4 -53 -7 -53 -8 0 -5 -32 4 -47 4 -6 3 -15 -3 -18
-8 -5 -8 -11 0 -20 8 -9 8 -15 0 -20 -6 -3 -7 -12 -3 -18 4 -6 8 -32 9 -57 1
-25 3 -45 4 -45 1 0 3 -16 4 -35 2 -19 7 -48 11 -65 4 -16 8 -39 10 -50 1 -11
3 -20 4 -20 3 0 9 -27 15 -60 2 -11 7 -29 11 -40 4 -11 11 -31 16 -45 5 -14
14 -38 20 -55 7 -16 13 -32 14 -35 1 -3 9 -22 18 -44 9 -21 17 -42 17 -47 0
-5 4 -9 10 -9 5 0 9 -3 8 -7 -2 -9 22 -62 35 -78 26 -34 67 -102 67 -112 0 -7
5 -13 10 -13 6 0 16 -11 22 -25 6 -14 17 -25 25 -25 7 0 12 -4 10 -8 -8 -28
171 -209 276 -279 20 -14 37 -30 37 -35 0 -5 4 -7 8 -4 5 3 18 -4 30 -14 12
-11 26 -20 32 -20 5 0 10 -4 10 -8 0 -5 23 -19 50 -32 28 -13 50 -27 50 -32 0
-4 3 -7 8 -6 10 2 66 -25 73 -36 4 -5 11 -6 17 -2 6 3 13 2 17 -4 4 -6 11 -8
16 -5 5 4 9 2 9 -2 0 -5 10 -9 22 -10 11 -1 25 -8 29 -15 5 -7 9 -10 9 -5 0 4
15 1 34 -7 19 -8 37 -12 40 -9 2 3 11 1 18 -3 13 -8 17 -9 78 -19 19 -2 58 -9
85 -15 28 -5 77 -12 109 -15 33 -3 63 -8 68 -11 4 -3 8 -1 8 4 0 5 12 7 28 5
15 -2 32 -4 37 -5 19 -1 182 13 206 17 13 3 40 8 59 11 19 3 53 10 75 16 22 6
45 11 50 12 17 3 119 37 140 46 11 5 45 19 75 32 89 36 201 106 338 212 23 17
243 237 277 276 17 19 39 36 50 38 79 11 130 19 130 22 0 1 11 3 25 6 14 2 36
7 50 11 14 4 30 7 35 8 6 0 20 6 31 13 12 6 24 9 27 5 4 -3 12 -2 19 3 7 6 46
21 86 34 39 13 72 28 72 33 0 4 4 6 9 2 5 -3 15 0 23 7 7 7 20 14 28 16 8 2
32 14 53 28 20 13 37 22 37 19 0 -3 10 3 21 14 12 11 36 27 53 35 17 8 37 24
45 35 8 11 18 18 23 15 4 -3 8 -1 8 5 0 5 9 13 21 16 21 7 229 207 229 221 0
3 10 15 22 25 11 11 18 19 15 19 -3 0 5 11 19 25 14 14 22 30 19 35 -3 6 -2
10 4 10 5 0 20 17 32 38 13 20 27 39 31 40 4 2 8 12 8 22 0 10 3 20 8 22 8 3
85 154 88 172 1 6 11 34 22 61 61 154 87 309 85 510 -1 145 -5 215 -13 215 -3
0 -6 15 -7 33 -2 45 -13 99 -24 120 -5 9 -7 17 -4 17 3 0 -1 16 -9 35 -8 19
-13 35 -11 35 2 0 -3 17 -11 38 -8 20 -18 46 -23 57 -18 47 -56 121 -66 127
-5 4 -6 8 -2 8 14 0 -116 211 -135 218 -4 2 -8 8 -8 14 0 19 -165 190 -174
181 -3 -4 -6 2 -6 12 0 10 -3 16 -6 13 -3 -3 -23 11 -45 33 -21 21 -39 36 -39
33 0 -4 -17 8 -37 25 -49 41 -51 42 -98 71 -22 13 -43 28 -46 33 -3 5 -8 7
-11 5 -5 -4 -101 44 -109 55 -3 5 -10 9 -15 9 -5 0 -25 6 -44 14 -19 9 -57 22
-85 31 -27 9 -52 19 -55 23 -3 3 -12 6 -20 6 -17 0 -117 22 -140 31 -15 6 -24
8 -95 17 -22 3 -41 6 -42 7 -4 2 -21 6 -35 8 -6 0 -9 4 -5 7 3 3 -9 20 -26 38
-18 18 -43 48 -57 66 -38 52 -180 190 -195 190 -8 0 -17 9 -20 21 -5 14 -12
18 -23 14 -9 -3 -13 -3 -10 1 7 6 -31 43 -42 40 -3 0 -12 5 -20 12 -47 40 -64
52 -76 52 -7 0 -14 3 -16 8 -4 10 -194 102 -211 102 -7 0 -18 5 -25 12 -7 7
-12 9 -12 5 0 -4 -13 -1 -30 8 -16 9 -30 13 -30 9 0 -4 -6 -2 -12 3 -7 6 -21
9 -30 8 -10 -2 -18 2 -18 8 0 5 -3 8 -6 4 -3 -3 -18 -1 -33 4 -14 6 -39 12
-56 14 -16 2 -50 7 -75 12 -25 5 -66 9 -92 9 -27 -1 -48 2 -48 5 0 7 -129 3
-137 -5 -3 -3 -13 -1 -23 4 -10 5 -20 7 -23 3z m219 -964 c8 -7 14 -6 17 3 3
7 6 3 6 -9 1 -13 -2 -23 -7 -23 -14 0 -71 -58 -64 -66 4 -4 2 -4 -5 0 -6 3
-19 -4 -27 -16 -9 -12 -16 -19 -16 -16 0 4 -13 -5 -29 -20 -115 -109 -167
-151 -192 -156 -8 -1 -34 -9 -59 -16 -58 -17 -52 -16 -75 -24 -53 -20 -72 -27
-90 -31 -11 -2 -43 -13 -71 -24 l-51 -20 2 24 c4 31 28 99 38 106 5 3 9 10 9
15 1 18 12 39 27 51 9 7 13 13 9 13 -4 0 6 13 22 29 17 15 30 33 30 40 0 6 4
10 9 9 5 -2 23 9 40 24 56 50 179 101 276 114 22 3 41 7 42 8 7 7 149 -7 159
-15z m1488 -879 c29 -30 93 -165 102 -215 11 -57 12 -173 2 -219 -5 -28 -10
-59 -10 -68 1 -10 -3 -18 -9 -18 -5 0 -9 -11 -9 -25 0 -14 -4 -25 -10 -25 -5
0 -10 -9 -10 -20 0 -11 -3 -20 -8 -20 -7 0 -23 -25 -38 -60 -7 -19 -63 -64
-70 -57 -3 2 -7 22 -10 43 -3 22 -8 46 -11 54 -3 8 -7 22 -8 30 -1 8 -7 38
-13 65 -38 163 -41 212 -19 301 3 12 8 39 12 60 8 45 13 68 15 72 2 1 4 7 5
12 1 6 3 11 5 13 1 1 2 21 3 45 0 23 5 42 9 42 5 0 8 6 7 13 -5 43 1 48 26 20
13 -15 31 -35 39 -43z m-1062 -89 c-6 -4 -12 -22 -13 -41 -2 -19 -5 -39 -8
-45 -10 -19 -15 -241 -7 -300 5 -34 17 -99 23 -118 4 -17 2 -17 -19 -6 -12 7
-30 20 -39 31 -9 10 -21 18 -28 18 -6 0 -11 5 -11 10 0 6 -7 10 -15 10 -8 0
-15 6 -15 13 0 6 -10 17 -23 23 -39 19 -92 49 -97 55 -4 5 -35 19 -50 24 -3 1
-23 10 -45 20 -22 10 -46 17 -52 16 -7 -1 -13 3 -13 9 0 6 -4 9 -9 5 -5 -3
-12 -1 -16 5 -3 5 -15 10 -26 10 -24 0 -25 15 -1 26 20 9 18 8 60 18 17 4 32
11 32 15 0 4 6 8 13 8 20 0 97 36 97 46 0 4 4 6 8 3 13 -8 113 59 104 69 -4 5
-2 5 5 1 6 -3 21 4 32 16 12 12 21 18 21 13 0 -4 9 3 21 16 29 34 73 61 78 48
2 -6 -1 -14 -7 -18z m-1042 -1071 c0 -5 3 -9 8 -8 13 3 97 -26 104 -37 4 -5 8
-6 8 -1 0 5 6 3 14 -3 8 -6 18 -11 22 -10 13 3 67 -12 80 -23 7 -5 16 -8 20
-7 22 5 94 -31 123 -61 13 -14 27 -24 32 -23 4 2 11 -6 14 -17 4 -11 15 -20
26 -20 10 0 18 -4 17 -9 -2 -5 14 -25 35 -44 20 -19 37 -33 37 -31 0 2 14 -10
30 -28 17 -17 30 -27 30 -22 0 5 8 -3 17 -16 10 -14 17 -27 16 -30 -4 -9 -99
-26 -138 -24 -93 6 -177 21 -186 35 -3 6 -9 10 -13 9 -14 -3 -66 12 -66 20 0
4 -10 10 -22 14 -30 7 -30 7 -55 31 -87 80 -123 119 -123 135 0 6 -4 10 -9 10
-5 0 -14 15 -22 33 -7 17 -20 44 -30 58 -10 14 -20 38 -23 52 -4 24 -2 27 25
27 16 0 29 -4 29 -10z"/>
</g>
</svg>
