<?xml version="1.0" standalone="no"?>
<!DOCTYPE svg PUBLIC "-//W3C//DTD SVG 20010904//EN"
 "http://www.w3.org/TR/2001/REC-SVG-20010904/DTD/svg10.dtd">
<svg version="1.0" xmlns="http://www.w3.org/2000/svg"
 width="900.000000pt" height="900.000000pt" viewBox="0 0 900.000000 900.000000"
 preserveAspectRatio="xMidYMid meet">
<metadata>
Created by potrace 1.14, written by Peter Selinger 2001-2017
</metadata>
<g transform="translate(0.000000,900.000000) scale(0.100000,-0.100000)"
fill="#000000" stroke="none">
<path d="M4738 7514 c-21 -7 -38 -10 -38 -7 0 3 -8 -1 -17 -10 -10 -8 -21 -15
-25 -14 -13 3 -108 -85 -102 -94 3 -5 1 -9 -3 -9 -9 0 -39 -69 -35 -82 1 -5
-1 -8 -6 -8 -4 0 -7 -30 -7 -68 0 -37 -3 -79 -6 -94 -4 -16 -3 -30 2 -34 6 -4
6 -10 0 -18 -7 -9 -7 -16 0 -23 6 -6 8 -17 3 -24 -4 -8 -8 -250 -9 -539 l0
-525 -30 -6 c-17 -3 -38 -2 -47 3 -11 5 -18 5 -18 -1 0 -7 -9 -7 -25 -1 -15 6
-25 6 -25 0 0 -5 -12 -5 -30 0 -19 5 -30 5 -30 -1 0 -6 -6 -6 -18 0 -11 6 -24
6 -34 0 -9 -5 -19 -5 -22 -1 -3 5 -28 6 -55 2 -28 -3 -55 -2 -60 3 -5 5 -11 4
-15 -2 -5 -8 -13 -8 -27 -1 -10 6 -19 7 -19 3 0 -5 -17 -7 -37 -6 -129 10
-370 -3 -435 -23 -11 -3 -18 0 -18 8 0 8 -3 9 -8 3 -4 -5 -13 -11 -20 -13 -30
-6 -88 -15 -99 -15 -7 0 -13 -3 -13 -7 0 -3 -10 -6 -22 -7 -27 -1 -44 -5 -123
-29 -33 -10 -63 -17 -67 -16 -5 1 -8 -2 -8 -6 0 -5 -6 -9 -12 -10 -26 -2 -88
-27 -88 -35 0 -5 -4 -5 -10 -2 -5 3 -10 1 -10 -5 0 -6 -4 -8 -10 -5 -5 3 -21
-2 -35 -11 -14 -9 -25 -12 -25 -8 0 5 -4 4 -8 -1 -4 -6 -20 -17 -37 -25 -59
-29 -215 -133 -215 -143 0 -6 -3 -8 -6 -4 -5 5 -26 -9 -63 -43 -10 -8 -37 -33
-61 -55 -25 -22 -44 -41 -42 -43 2 -2 -10 -13 -25 -25 -15 -12 -31 -25 -34
-30 -4 -5 -26 -32 -50 -60 -24 -27 -42 -50 -40 -51 3 -1 -10 -17 -28 -36 -18
-19 -41 -51 -52 -70 -11 -19 -31 -53 -44 -75 -34 -56 -120 -228 -120 -241 0
-6 -6 -19 -14 -28 -7 -9 -11 -16 -7 -16 3 0 -3 -23 -14 -50 -11 -28 -22 -64
-25 -82 -3 -18 -10 -37 -14 -43 -5 -5 -9 -17 -9 -25 -2 -26 -10 -95 -12 -95
-1 0 -3 -7 -5 -15 -1 -8 -6 -31 -10 -50 -10 -47 -11 -400 -1 -470 8 -60 14
-95 16 -95 1 0 3 -15 6 -34 2 -19 10 -53 16 -75 6 -23 12 -44 14 -48 1 -5 3
-11 4 -15 2 -5 4 -12 5 -18 1 -5 7 -23 13 -38 7 -16 12 -35 12 -43 0 -8 4 -14
8 -14 4 0 8 -10 9 -22 1 -11 6 -24 10 -27 8 -6 32 -64 37 -89 1 -8 8 -17 15
-21 7 -5 13 -12 13 -17 1 -20 37 -85 64 -117 11 -12 20 -26 20 -31 1 -10 23
-42 42 -62 7 -8 10 -14 6 -14 -4 0 3 -8 14 -19 12 -10 22 -24 22 -30 0 -7 5
-9 10 -6 5 3 10 1 10 -6 0 -7 7 -19 15 -28 72 -77 115 -127 115 -133 0 -5 7
-8 15 -8 8 0 15 -4 15 -10 0 -12 81 -90 94 -90 5 0 7 -3 3 -6 -7 -7 61 -74 76
-74 5 0 8 -3 4 -6 -3 -3 23 -35 59 -71 35 -35 64 -69 64 -74 0 -5 6 -9 14 -9
8 0 18 -9 21 -20 4 -11 11 -18 16 -15 5 4 9 2 9 -2 0 -5 45 -55 100 -113 55
-57 100 -107 100 -111 0 -4 9 -11 20 -14 11 -3 20 -11 20 -16 0 -11 60 -69 71
-69 5 0 9 -4 9 -9 0 -6 78 -88 172 -183 95 -95 191 -194 214 -220 23 -26 45
-44 48 -41 3 4 6 -1 6 -11 0 -9 5 -14 10 -11 6 3 10 1 10 -5 0 -6 32 -43 70
-81 39 -39 70 -73 70 -75 0 -2 16 -20 35 -40 19 -19 35 -32 35 -28 0 4 10 -5
23 -19 23 -27 108 -74 148 -81 13 -3 24 -5 24 -6 0 -1 17 -3 38 -4 20 -1 37 1
37 5 0 4 6 6 13 6 25 -3 97 15 97 24 0 5 3 8 8 7 8 -3 59 30 82 52 25 25 62
80 65 98 2 9 4 17 6 17 8 0 11 130 14 700 1 358 3 652 4 655 2 9 321 6 321 -3
0 -5 5 -5 11 -1 17 10 109 12 109 1 0 -4 5 -5 11 -1 7 4 73 8 148 10 131 4
256 10 256 13 0 1 25 4 55 6 51 5 95 11 95 15 0 1 16 3 35 4 47 4 93 14 126
26 15 6 29 9 31 6 2 -2 34 7 71 21 37 13 75 26 84 28 9 2 25 8 35 13 10 6 20
10 23 9 3 0 29 11 58 26 28 14 52 23 52 20 0 -3 8 1 18 9 9 8 24 18 34 21 31
11 188 118 188 128 0 6 4 8 8 5 5 -3 22 8 37 24 16 17 35 30 42 30 7 0 13 6
13 13 0 8 12 19 26 25 14 7 22 17 19 22 -3 6 -1 10 5 10 15 0 169 165 168 180
0 3 16 23 35 44 20 22 34 42 32 46 -2 3 5 12 15 20 10 8 17 17 14 22 -3 4 0 8
5 8 6 0 11 6 11 14 0 7 7 19 15 26 8 7 12 16 9 21 -3 5 0 9 5 9 6 0 11 7 11
15 0 8 5 15 12 15 6 0 9 3 6 6 -3 3 12 39 33 80 21 41 39 76 40 79 5 27 13 45
19 45 4 0 7 10 6 23 -1 12 4 31 11 42 7 12 15 32 17 45 2 14 5 25 6 25 1 0 3
7 5 15 2 8 9 33 15 55 6 22 13 56 14 75 2 19 7 42 10 51 4 9 6 20 5 25 -1 5 0
11 1 14 10 20 21 388 11 405 -3 5 -6 21 -7 35 -1 14 -5 48 -9 75 -4 28 -7 56
-8 63 0 6 -4 12 -9 12 -5 0 -6 5 -3 11 6 9 -6 75 -22 119 -6 15 -11 30 -16 53
-6 24 -18 62 -26 82 -5 11 -17 40 -27 65 -10 25 -22 48 -27 51 -5 3 -8 9 -8
13 2 9 -29 79 -37 86 -4 3 -15 21 -24 40 -29 60 -63 111 -95 145 -7 8 -13 18
-13 24 0 6 -4 11 -8 11 -4 0 -15 12 -24 28 -9 15 -37 48 -62 75 -25 26 -46 49
-46 51 0 2 -66 71 -147 153 -82 82 -160 164 -175 182 -16 18 -28 30 -28 26 0
-6 -33 29 -111 116 -14 16 -32 29 -39 29 -7 0 -11 3 -8 6 3 3 -45 58 -108 122
-63 64 -114 120 -114 124 0 5 -7 8 -15 8 -8 0 -15 5 -15 10 0 6 -47 59 -105
118 -175 178 -426 437 -497 511 -36 38 -69 67 -71 64 -3 -2 -8 4 -11 14 -3 11
-22 26 -41 33 -19 8 -35 18 -35 24 0 5 -3 7 -6 3 -3 -3 -18 -1 -33 5 -40 16
-132 17 -173 2z"/>
</g>
</svg>
