<svg xmlns="http://www.w3.org/2000/svg" viewBox="0 0 38.1 41.947">
  <path fill="#1a1a1a" d="M37.1 13.26v-3a28.52 28.52 0 0 1-4.37 3zM0 27.1v5.37a28.47 28.47 0 0 1 8.49-5.29z"/>
  <path fill="#29abe2" d="M38.1 29.6c0-7.84-6.25-11.17-12.51-12.26l-4.11-.69c-.8.07-1.61.11-2.43.11a28.33 28.33 0 0 1-17.4-5.94 12.73 12.73 0 0 0-.07 1.27c0 7.34 6 10.92 14.51 12.42l4.07.66a28.34 28.34 0 0 1 17.68 7.07 13.37 13.37 0 0 0 .26-2.64z"/>
  <path fill="#fff" d="m21.48 16.65-3.8-.65c-.4-.07-.77-.15-1.12-.24A27.46 27.46 0 0 1 1.81 9.83c-.06.32-.12.65-.15 1a28.33 28.33 0 0 0 17.4 5.94 32.4 32.4 0 0 0 2.42-.12z"/>
  <path fill="#1a1a1a" d="M30.81 13.26h1.92a28.52 28.52 0 0 0 4.37-3V9.15a27.6 27.6 0 0 1-6.29 4.11z"/>
  <path fill="#1a1a1a" d="M11.67 11.42c0-2.17 1.75-4.09 6.17-4.09 4.92 0 7.34 2.34 10.59 5.92h2.38a27.6 27.6 0 0 0 6.29-4.1V1.08h-8.67v2.59C26 1.33 22.51 0 17.68 0 9.42 0 3 3.38 1.81 9.83a27.46 27.46 0 0 0 14.75 5.94c-3.7-.89-4.89-2.45-4.89-4.35z"/>
  <path fill="#fff" d="M26.87 27.15a27.55 27.55 0 0 1 10.73 6c.09-.31.18-.62.24-.94a28.34 28.34 0 0 0-17.68-7.07l3.1.5a8 8 0 0 1 3.61 1.51zm-17.47.61-.56-.66-.08.08h-.27A28.47 28.47 0 0 0 0 32.47v1.2a27.59 27.59 0 0 1 9.4-5.91z"/>
  <path fill="#1a1a1a" d="M28.35 30.18c0 2.09-1.42 4.25-6.5 4.25-5.76 0-9.13-2.84-12.44-6.68A27.59 27.59 0 0 0 0 33.66v7h8.75V37.1a21.61 21.61 0 0 0 14.17 4.84c7.94 0 13.12-3.38 14.67-8.75a27.55 27.55 0 0 0-10.73-6 3.73 3.73 0 0 1 1.49 2.99z"/>
</svg>